<?xml version="1.0" standalone="no"?>
<!DOCTYPE svg PUBLIC "-//W3C//DTD SVG 20010904//EN"
 "http://www.w3.org/TR/2001/REC-SVG-20010904/DTD/svg10.dtd">
<svg version="1.0" xmlns="http://www.w3.org/2000/svg"
 width="512.000000pt" height="512.000000pt" viewBox="0 0 512.000000 512.000000"
 preserveAspectRatio="xMidYMid meet">
<metadata>
Created by potrace 1.14, written by Peter Selinger 2001-2017
</metadata>
<g transform="translate(0.000000,512.000000) scale(0.100000,-0.100000)"
fill="#000000" stroke="none">
<path d="M2657 4351 c-9 -16 -13 -31 -8 -33 4 -1 42 -33 82 -70 41 -36 87 -76
102 -88 22 -18 26 -25 15 -32 -9 -7 -7 -8 7 -4 14 4 35 -6 70 -35 115 -95 151
-125 172 -148 13 -13 26 -21 29 -18 4 3 24 -1 45 -10 50 -20 157 -13 203 13
15 9 5 12 -50 16 -73 5 -147 36 -194 80 -14 13 -72 62 -130 110 -58 47 -148
122 -200 167 -52 44 -102 81 -110 81 -9 0 -23 -13 -33 -29z"/>
<path d="M3586 4105 c-20 -22 -22 -30 -15 -72 4 -27 14 -70 23 -98 20 -69 29
-308 16 -430 -24 -229 -23 -220 -7 -236 11 -12 47 -18 129 -23 164 -10 206
-15 263 -37 85 -32 105 -65 93 -153 -4 -30 37 -47 107 -44 45 2 61 7 63 19 2
10 -10 18 -40 25 l-43 9 3 51 c6 93 -51 133 -227 159 -53 8 -131 15 -173 15
-98 0 -113 12 -104 84 25 192 28 246 22 391 -3 91 -12 182 -20 210 -8 28 -17
68 -21 90 -12 69 -32 80 -69 40z"/>
<path d="M2757 3911 c-9 -16 -17 -34 -17 -41 0 -45 -234 -551 -304 -657 -19
-29 -47 -75 -62 -102 -15 -28 -31 -48 -36 -45 -5 3 -7 2 -6 -3 1 -4 -2 -19 -6
-32 -6 -19 -10 -21 -18 -10 -7 10 -8 9 -4 -6 4 -13 -8 -40 -34 -80 -40 -61
-50 -100 -27 -108 6 -2 32 3 56 11 38 13 42 17 28 27 -10 7 -17 16 -17 20 0 9
75 138 168 290 94 152 116 194 214 411 109 239 142 324 131 334 -24 23 -49 19
-66 -9z"/>
<path d="M1946 3904 c-17 -44 14 -68 102 -80 53 -7 178 11 188 27 3 5 -25 9
-63 9 -55 0 -80 6 -131 30 -73 34 -87 36 -96 14z"/>
<path d="M3050 3120 c-9 -6 -10 -10 -3 -10 6 0 15 5 18 10 8 12 4 12 -15 0z"/>
<path d="M2935 3080 c-16 -7 -17 -9 -3 -9 9 -1 20 4 23 9 7 11 7 11 -20 0z"/>
<path d="M2860 3050 c-9 -6 -10 -10 -3 -10 6 0 15 5 18 10 8 12 4 12 -15 0z"/>
<path d="M2730 3000 c-9 -6 -10 -10 -3 -10 6 0 15 5 18 10 8 12 4 12 -15 0z"/>
<path d="M2615 2966 c-38 -12 -83 -30 -100 -40 -16 -9 -21 -14 -10 -11 111 38
189 66 193 70 9 9 -10 4 -83 -19z"/>
<path d="M3540 2940 c-11 -11 -20 -26 -20 -32 2 -92 33 -373 49 -437 20 -80
122 -296 160 -338 9 -10 38 -51 65 -90 62 -91 63 -123 10 -188 -20 -25 -40
-42 -45 -39 -5 3 -6 -1 -3 -9 3 -8 1 -18 -5 -22 -18 -10 -57 -105 -77 -185
-13 -56 -18 -104 -16 -187 2 -79 -2 -129 -13 -170 -31 -110 -46 -139 -116
-214 -54 -58 -58 -64 -37 -67 17 -3 40 15 100 76 121 126 152 209 150 402 -1
83 4 138 18 198 24 100 42 136 114 232 37 48 56 83 56 101 0 16 -18 54 -43 91
-24 35 -60 87 -81 117 -59 86 -135 249 -156 336 -20 84 -39 251 -41 373 -1 69
-3 72 -25 72 -13 0 -33 -9 -44 -20z"/>
<path d="M2425 2890 c-3 -5 -2 -10 4 -10 5 0 13 5 16 10 3 6 2 10 -4 10 -5 0
-13 -4 -16 -10z"/>
<path d="M1088 2837 c-40 -16 -34 -27 12 -27 23 0 69 -9 104 -20 51 -17 71
-30 102 -67 22 -25 43 -52 47 -59 15 -26 226 -7 257 23 13 12 3 13 -75 7 l-90
-6 -39 52 c-22 28 -50 59 -62 67 -57 37 -197 54 -256 30z"/>
<path d="M787 2731 c-48 -3 -87 -9 -87 -13 0 -5 0 -13 0 -19 0 -8 17 -10 53
-6 65 6 137 27 137 39 0 4 -3 7 -7 6 -5 -1 -47 -4 -96 -7z"/>
<path d="M1885 2435 c-22 -13 -44 -21 -50 -17 -5 3 -7 2 -4 -2 4 -4 -23 -35
-59 -69 -36 -34 -77 -75 -91 -92 -14 -16 -33 -36 -41 -45 -75 -77 -165 -221
-176 -282 -11 -65 -11 -107 1 -105 5 1 12 -26 15 -61 4 -52 9 -66 30 -82 14
-11 30 -20 36 -20 19 0 72 -66 78 -97 13 -59 -60 -181 -241 -404 -17 -22 -41
-64 -52 -95 -12 -30 -40 -81 -64 -112 -56 -76 -65 -84 -78 -76 -8 5 -9 3 -5
-5 8 -12 -31 -54 -109 -118 -66 -53 -15 -38 61 18 132 98 225 204 274 314 17
38 78 131 135 207 110 144 165 240 165 283 0 43 -27 82 -85 125 -53 39 -55 42
-55 88 -1 26 -7 58 -15 72 -23 41 -18 90 20 168 46 98 106 174 242 311 63 63
112 115 111 116 -2 1 -21 -8 -43 -20z"/>
<path d="M3372 1675 c0 -16 2 -22 5 -12 2 9 2 23 0 30 -3 6 -5 -1 -5 -18z"/>
<path d="M3372 960 c0 -14 2 -19 5 -12 2 6 2 18 0 25 -3 6 -5 1 -5 -13z"/>
</g>
</svg>
